<svg xmlns="http://www.w3.org/2000/svg" viewBox="0 0 24 24" fill="currentColor">
  <path d="M12 0C5.37 0 0 5.48 0 12.24c0 5.41 3.44 10 8.21 11.62.6.11.82-.27.82-.59 0-.29-.01-1.06-.02-2.08-3.34.74-4.04-1.64-4.04-1.64-.55-1.42-1.34-1.8-1.34-1.8-1.09-.76.08-.75.08-.75 1.21.09 1.85 1.27 1.85 1.27 1.07 1.87 2.82 1.33 3.5 1.02.11-.79.42-1.33.76-1.64-2.67-.31-5.47-1.36-5.47-6.06 0-1.34.47-2.43 1.24-3.29-.12-.31-.54-1.56.12-3.25 0 0 1.01-.33 3.3 1.26.96-.27 1.98-.41 3-.41 1.02 0 2.04.14 3 .41 2.29-1.59 3.3-1.26 3.3-1.26.66 1.69.24 2.94.12 3.25.77.86 1.24 1.95 1.24 3.29 0 4.71-2.81 5.75-5.49 6.06.43.38.82 1.13.82 2.28 0 1.64-.02 2.96-.02 3.36 0 .33.22.71.83.59A12.24 12.24 0 0 0 24 12.24C24 5.48 18.63 0 12 0Z"/>
</svg>
